# xmcd CD database file
#
# Track frame offsets:
#	150
#	15700
#	29595
#	42612
#	55537
#	71902
#	87792
#	95943
#	112898
#	130765
#	142815
#	163890
#	179723
#	193979
#	208334
#	217981
#	237406
#	250493
#	266740
#	283735
#	300279
#	317387
#
# Disc length: 4369 seconds
#
# Revision: 0
# Processed by: cddbd v1.5.2PL0 Copyright (c) Steve Scherf et al.
# Submitted via: CDex 1.51
#
DISCID=51110f16
DTITLE=Tanzparade - Country-Road
DYEAR=2001
DGENRE=Country
TTITLE0=Dagmar-Darf ein Truck mit seinem Fahrer in den Himmel
TTITLE1=Linda Feller-Der Himmel hat keine Engel mehr
TTITLE2=Ramona u. Hannes-In der Nacht
TTITLE3=Truck Stop-Lass doch mal den Couboy ran
TTITLE4=Hanna u. Daana-Er ist wie Du
TTITLE5=Trucker
TTITLE6=Ramona u. Hannes-Komm Baby
TTITLE7=Western Union-Mensch,waren das noch Zeiten
TTITLE8=Fair Play-Darfs ein bisschen mehr sein
TTITLE9=Linda Feller-Grundverschieden
TTITLE10=Western Union-Ich mag die Sonne,Ich mag den Mond
TTITLE11=Fair Play-Sommerfest in der Laubenkolonie
TTITLE12=Gudrun Lange u. Kaktus-Ein Duft von Heu
TTITLE13=Ölivia Winter-Ich war noch nie in Kansas
TTITLE14=Ramona u.Hannes-Darling steh auf
TTITLE15=Dagmar-Du gingst in die Dunkelheit
TTITLE16=Linda Feller-2 Fäuste und ein Whisky
TTITLE17=Linda Feller-Engel lieben meist die Falschen
TTITLE18=Hanna u. Daana-Küsse wie Feuer
TTITLE19=Sammy's Saloon-Country Musik in Texas
TTITLE20=Tom Astor-Meine Antwort ist die Autobahn
TTITLE21=Die schönste Frau von Texas
EXTD=YEAR: 2001
EXTT0=
EXTT1=
EXTT2=
EXTT3=
EXTT4=
EXTT5=
EXTT6=
EXTT7=
EXTT8=
EXTT9=
EXTT10=
EXTT11=
EXTT12=
EXTT13=
EXTT14=
EXTT15=
EXTT16=
EXTT17=
EXTT18=
EXTT19=
EXTT20=
EXTT21=
PLAYORDER=
